<svg width="74" height="90" viewBox="0 0 74 90" fill="none" xmlns="http://www.w3.org/2000/svg">
<ellipse cx="37" cy="37.1824" rx="37" ry="37.1824" fill="#FE7920"/>
<rect width="45.7624" height="45.7624" rx="10" transform="matrix(0.705366 -0.708844 0.705366 0.708844 5 57.5616)" fill="#FE7920"/>
<path d="M66.5 37.1824C66.5 53.5589 53.2901 66.8304 37 66.8304C20.7099 66.8304 7.5 53.5589 7.5 37.1824C7.5 20.806 20.7099 7.53452 37 7.53452C53.2901 7.53452 66.5 20.806 66.5 37.1824Z" fill="#FEE5D1" stroke="black"/>
<path d="M43.2305 40.4718V42.1944H41.0859V46.1202H39.0469V42.1944H31.6875V40.3428L38.6016 29.3507H41.0859V40.4718H43.2305ZM39.0469 31.5889L33.5039 40.4952H39.0469V31.5889Z" fill="black"/>
</svg>
