<svg width="74" height="90" viewBox="0 0 74 90" fill="none" xmlns="http://www.w3.org/2000/svg">
<circle cx="37" cy="37" r="37" fill="#3269DF"/>
<rect x="5" y="57.2792" width="45.6497" height="45.6497" rx="10" transform="rotate(-45 5 57.2792)" fill="#3269DF"/>
<circle cx="37" cy="37" r="29.5" fill="#F6F9FF" stroke="black"/>
<path d="M36.6484 46.293C34.8203 46.293 33.4922 45.957 32.6641 45.2852C31.8359 44.6055 31.4219 43.5469 31.4219 42.1094H33.4375C33.4375 42.7266 33.543 43.2227 33.7539 43.5977C33.9727 43.9648 34.3164 44.2344 34.7852 44.4062C35.2539 44.5781 35.8789 44.6641 36.6602 44.6641C37.7227 44.6641 38.5234 44.5508 39.0625 44.3242C39.6094 44.0977 39.9922 43.6992 40.2109 43.1289C40.4297 42.5586 40.5391 41.7148 40.5391 40.5977C40.5391 39.6992 40.4297 39.0039 40.2109 38.5117C40 38.0117 39.6406 37.6562 39.1328 37.4453C38.6328 37.2266 37.9297 37.1172 37.0234 37.1172C36.2578 37.1172 35.6016 37.2422 35.0547 37.4922C34.5078 37.7422 33.9727 38.1641 33.4492 38.7578L31.7734 38.1484L32.418 29.125H41.9102V30.8359H34.3867L33.8359 37.0117C34.1719 36.5352 34.6211 36.1406 35.1836 35.8281C35.7461 35.5156 36.5 35.3594 37.4453 35.3594C38.6953 35.3594 39.6914 35.5352 40.4336 35.8867C41.1836 36.2383 41.7266 36.793 42.0625 37.5508C42.4062 38.3086 42.5781 39.3242 42.5781 40.5977C42.5781 41.9727 42.3711 43.0742 41.957 43.9023C41.5508 44.7305 40.9141 45.3359 40.0469 45.7188C39.1875 46.1016 38.0547 46.293 36.6484 46.293Z" fill="black"/>
</svg>
