<svg width="74" height="90" viewBox="0 0 74 90" fill="none" xmlns="http://www.w3.org/2000/svg">
<circle cx="37" cy="37" r="37" fill="#10B910"/>
<rect x="5" y="57.2792" width="45.6497" height="45.6497" rx="10" transform="rotate(-45 5 57.2792)" fill="#10B910"/>
<circle cx="37" cy="37" r="29.5" fill="#EEFFE6" stroke="black"/>
<path d="M37.793 46.375C36.293 46.375 35.1172 46.2031 34.2656 45.8594C33.4141 45.5156 32.8047 44.9688 32.4375 44.2188C32.0781 43.4688 31.9023 42.4492 31.9102 41.1602L31.9336 33.8477C31.9336 32.1055 32.3984 30.8164 33.3281 29.9805C34.2656 29.1445 35.707 28.7266 37.6523 28.7266C39.3945 28.7266 40.7422 29.0703 41.6953 29.7578C42.6484 30.4375 43.125 31.6016 43.125 33.25H41.1797C41.1797 32.5234 41.0547 31.9609 40.8047 31.5625C40.5625 31.1562 40.1836 30.8711 39.668 30.707C39.1523 30.543 38.4609 30.4609 37.5938 30.4609C36.7188 30.4609 36.0195 30.5742 35.4961 30.8008C34.9727 31.0195 34.5898 31.3672 34.3477 31.8438C34.1055 32.3203 33.9766 32.9609 33.9609 33.7656L33.9141 37.1758C34.3281 36.5742 34.8633 36.1445 35.5195 35.8867C36.1836 35.6289 37.082 35.5 38.2148 35.5C39.5977 35.5 40.668 35.6641 41.4258 35.9922C42.1914 36.3203 42.7383 36.8633 43.0664 37.6211C43.3945 38.3789 43.5586 39.4453 43.5586 40.8203C43.5586 42.2578 43.3906 43.3711 43.0547 44.1602C42.7266 44.9492 42.1523 45.5156 41.332 45.8594C40.5117 46.2031 39.332 46.375 37.793 46.375ZM37.7695 44.6406C38.8477 44.6406 39.6406 44.5391 40.1484 44.3359C40.6641 44.125 41.0117 43.7578 41.1914 43.2344C41.3789 42.7109 41.4727 41.9102 41.4727 40.832C41.4727 39.8867 41.3633 39.1562 41.1445 38.6406C40.9336 38.1172 40.5742 37.7422 40.0664 37.5156C39.5664 37.2891 38.8594 37.1758 37.9453 37.1758C36.8359 37.1758 35.9492 37.3359 35.2852 37.6562C34.6289 37.9766 34.1758 38.4727 33.9258 39.1445L33.9492 41.1602C33.9648 42.0898 34.0898 42.8047 34.3242 43.3047C34.5586 43.7969 34.9453 44.1445 35.4844 44.3477C36.0234 44.543 36.7852 44.6406 37.7695 44.6406Z" fill="black"/>
</svg>
