<svg width="35" height="35" viewBox="0 0 35 35" fill="none" xmlns="http://www.w3.org/2000/svg">
<path d="M17.5 32.0833C25.5542 32.0833 32.0833 25.5541 32.0833 17.5C32.0833 9.44584 25.5542 2.91666 17.5 2.91666C9.44585 2.91666 2.91667 9.44584 2.91667 17.5C2.91667 25.5541 9.44585 32.0833 17.5 32.0833Z" stroke="white" stroke-width="1.5"/>
<path d="M14.7656 12.9427C14.7657 12.4638 14.8915 11.9934 15.1305 11.5784C15.3695 11.1635 15.7132 10.8185 16.1274 10.5782C16.5415 10.3378 17.0116 10.2104 17.4904 10.2087C17.9693 10.207 18.4402 10.3311 18.856 10.5686C19.2718 10.8061 19.618 11.1486 19.8599 11.5618C20.1018 11.9751 20.2309 12.4447 20.2343 12.9235C20.2377 13.4024 20.1153 13.8737 19.8794 14.2904C19.6434 14.7071 19.3022 15.0545 18.8898 15.2979C18.1971 15.7077 17.5 16.3304 17.5 17.1354V18.9583" stroke="white" stroke-width="1.5" stroke-linecap="round"/>
<path d="M17.5 24.7917C18.3054 24.7917 18.9583 24.1387 18.9583 23.3333C18.9583 22.5279 18.3054 21.875 17.5 21.875C16.6946 21.875 16.0417 22.5279 16.0417 23.3333C16.0417 24.1387 16.6946 24.7917 17.5 24.7917Z" fill="white"/>
</svg>
